<svg xmlns="http://www.w3.org/2000/svg" width="512" height="512" viewBox="0 0 384 384" xmlns:v="https://vecta.io/nano"><path d="M115.229 233.715v-55.903l79.752-27.027 83.968 26.689v53.71l-83.968 49.32zm78.923-94.928l84.797 29.428V137.51l-84.657-40.343-79.063 38.556v31.429" fill="#fd5"/><path d="M323.328 306.476c80.682-77.777 59.836-149.225 10.117-282.406C190.354.69 190.354.69 70.005 53.154c-27.953 27.953-51.94 77.871-52.454 124.693 6.455-32.012 22.216-61.406 45.308-84.497 64.774-64.774 169.793-64.774 234.567 0s64.774 169.793 0 234.567c9.287-6.319 17.959-13.497 25.902-21.44z" fill="#e6e6e6"/><path d="M190.354 8.277C88.887 8.277 6.631 90.533 6.631 192s82.256 183.723 183.723 183.723c77.397 0 146.494-48.504 172.792-121.296-29.4 46.827-80.809 75.25-136.1 75.25-88.751-.001-160.698-71.948-160.699-160.699 0-81.891 61.578-150.684 142.969-159.719-6.3-.654-12.629-.981-18.962-.982z" fill="#698fff"/></svg>